<?xml version="1.0" encoding="UTF-8"?>
<!DOCTYPE svg PUBLIC "-//W3C//DTD SVG 1.1//EN" "http://www.w3.org/Graphics/SVG/1.1/DTD/svg11.dtd">
<svg xmlns="http://www.w3.org/2000/svg" version="1.1" width="512px" height="512px" style="shape-rendering:geometricPrecision; text-rendering:geometricPrecision; image-rendering:optimizeQuality; fill-rule:evenodd; clip-rule:evenodd" xmlns:xlink="http://www.w3.org/1999/xlink">
<g><path style="opacity:0.942" fill="#000000" d="M 453.5,-0.5 C 458.833,-0.5 464.167,-0.5 469.5,-0.5C 467.833,29.1667 481.833,43.1667 511.5,41.5C 511.5,46.8333 511.5,52.1667 511.5,57.5C 481.833,55.8333 467.833,69.8333 469.5,99.5C 464.167,99.5 458.833,99.5 453.5,99.5C 455.167,69.8333 441.167,55.8333 411.5,57.5C 411.5,52.1667 411.5,46.8333 411.5,41.5C 441.167,43.1667 455.167,29.1667 453.5,-0.5 Z M 460.5,37.5 C 464.767,41.4281 469.1,45.4281 473.5,49.5C 469.167,53.1667 465.167,57.1667 461.5,61.5C 457.833,57.1667 453.833,53.1667 449.5,49.5C 453.869,46.1314 457.536,42.1314 460.5,37.5 Z"/></g>
<g><path style="opacity:0.926" fill="#000000" d="M -0.5,32.5 C -0.5,31.5 -0.5,30.5 -0.5,29.5C -0.174317,14.6658 7.15902,5.1658 21.5,1C 39.7265,-0.444744 57.0599,2.88859 73.5,11C 115.385,31.7593 154.385,56.7593 190.5,86C 199.413,83.7023 208.413,81.369 217.5,79C 293.217,66.1163 354.717,89.6163 402,149.5C 408.089,158.005 413.422,167.005 418,176.5C 418.749,177.635 418.583,178.635 417.5,179.5C 413.5,181.5 409.5,183.5 405.5,185.5C 373.381,126.082 323.381,94.4151 255.5,90.5C 201.567,92.6321 157.901,114.632 124.5,156.5C 135.479,169.98 146.645,183.313 158,196.5C 165.795,172.179 182.295,162.679 207.5,168C 221.717,172.884 230.217,182.717 233,197.5C 234.934,217.55 226.768,231.717 208.5,240C 205.833,240.667 203.167,241.333 200.5,242C 230.363,273.53 261.196,304.03 293,333.5C 302.105,298.696 324.605,280.03 360.5,277.5C 381.884,277.944 399.384,286.278 413,302.5C 420.456,275.085 421.456,247.418 416,219.5C 414.336,212.343 412.17,205.343 409.5,198.5C 414.321,195.951 419.321,194.118 424.5,193C 432.424,213.04 436.09,233.873 435.5,255.5C 435.992,277.382 432.325,298.549 424.5,319C 447.432,348.348 468.265,379.181 487,411.5C 496.83,428.156 504.163,445.823 509,464.5C 515.328,501.171 500.162,516.004 463.5,509C 442.057,502.444 421.723,493.444 402.5,482C 374.12,464.479 346.786,445.479 320.5,425C 251.363,447.505 189.03,435.505 133.5,389C 83.8569,340.053 66.0235,281.22 80,212.5C 81.9366,205.585 84.1033,198.751 86.5,192C 74.2164,175.272 62.0497,158.439 50,141.5C 49.2506,140.365 49.4173,139.365 50.5,138.5C 54.1954,135.638 58.0287,132.972 62,130.5C 148.379,250.546 251.212,354.379 370.5,442C 393.012,457.764 416.679,471.764 441.5,484C 453.89,489.964 466.89,493.797 480.5,495.5C 485.646,495.507 489.812,493.507 493,489.5C 495.723,477.095 494.389,465.095 489,453.5C 476.146,424.112 460.479,396.445 442,370.5C 433.667,359.167 425.333,347.833 417,336.5C 413.833,342.167 410.667,347.833 407.5,353.5C 429.049,378.92 447.882,406.253 464,435.5C 468.889,444.601 469.556,453.934 466,463.5C 460.344,468.193 453.844,469.693 446.5,468C 428.151,460.995 411.151,451.662 395.5,440C 356.708,410.885 319.374,379.885 283.5,347C 212.948,282.129 147.781,212.629 88,138.5C 78.0875,125.009 68.4209,111.342 59,97.5C 52.9455,88.0577 47.9455,78.0577 44,67.5C 42.058,61.4853 42.058,55.4853 44,49.5C 47.1559,44.3266 51.8226,41.9933 58,42.5C 70.5123,44.3367 82.0123,48.8367 92.5,56C 115.231,70.3667 136.898,86.2 157.5,103.5C 163.167,100.333 168.833,97.1667 174.5,94C 141.703,68.4217 106.703,46.0884 69.5,27C 57.2284,21.1302 44.3951,17.2969 31,15.5C 21.4085,15.9248 16.2419,20.9248 15.5,30.5C 17.0646,43.3632 20.5646,55.6965 26,67.5C 34.5387,84.7491 43.7053,101.582 53.5,118C 49.8893,121.604 45.7226,124.437 41,126.5C 24.4869,103.596 11.8202,78.5964 3,51.5C 1.59684,45.0666 0.430176,38.7333 -0.5,32.5 Z M 58.5,58.5 C 68.9167,61.3748 78.5834,65.8748 87.5,72C 107.096,84.6259 125.763,98.4593 143.5,113.5C 132.5,122.5 122.5,132.5 113.5,143.5C 95.619,122.109 79.4524,99.4423 65,75.5C 62.2648,70.0332 60.0982,64.3666 58.5,58.5 Z M 327.5,150.5 C 335.677,150.216 338.51,153.883 336,161.5C 331.293,165.493 327.293,164.827 324,159.5C 323.043,155.639 324.21,152.639 327.5,150.5 Z M 189.5,182.5 C 208.284,181.119 217.451,189.786 217,208.5C 211.022,224.408 200.188,229.242 184.5,223C 171.1,212.065 170.1,200.065 181.5,187C 184.099,185.205 186.766,183.705 189.5,182.5 Z M 98.5,206.5 C 127.489,241 157.822,274.5 189.5,307C 171.603,314.962 165.103,328.462 170,347.5C 177.515,362.841 189.682,369.007 206.5,366C 217.667,362.833 224.833,355.667 228,344.5C 252.609,368.116 278.109,390.616 304.5,412C 244.886,429.077 191.552,417.41 144.5,377C 96.1739,329.204 80.8405,272.371 98.5,206.5 Z M 354.5,293.5 C 377.38,292.437 394.714,301.604 406.5,321C 394.501,347.323 377.001,369.157 354,386.5C 338.421,374.26 323.421,361.26 309,347.5C 309.535,327.594 318.035,312.094 334.5,301C 340.878,297.379 347.545,294.879 354.5,293.5 Z M 195.5,322.5 C 205.419,322.091 211.085,326.757 212.5,336.5C 212.008,345.328 207.341,350.328 198.5,351.5C 185.62,348.363 181.787,340.696 187,328.5C 189.322,325.605 192.155,323.605 195.5,322.5 Z M 396.5,367.5 C 397.496,367.414 398.329,367.748 399,368.5C 417.62,391.461 434.287,415.794 449,441.5C 450.306,444.612 451.472,447.779 452.5,451C 452.167,451.5 451.833,452 451.5,452.5C 441.495,449.33 432.161,444.83 423.5,439C 403.904,426.374 385.237,412.541 367.5,397.5C 378.582,388.754 388.248,378.754 396.5,367.5 Z"/></g>
<g><path style="opacity:0.925" fill="#000000" d="M 354.5,22.5 C 376.465,22.2927 385.632,32.9594 382,54.5C 375.347,67.0465 365.18,71.2131 351.5,67C 339.471,60.1032 335.304,49.9366 339,36.5C 342.492,29.8344 347.659,25.1678 354.5,22.5 Z M 358.5,38.5 C 365.99,38.8197 368.49,42.4864 366,49.5C 361.098,53.9856 357.098,53.3189 354,47.5C 353.053,43.2791 354.553,40.2791 358.5,38.5 Z"/></g>
<g><path style="opacity:0.938" fill="#000000" d="M 187.5,120.5 C 192.833,120.5 198.167,120.5 203.5,120.5C 203.5,125.5 203.5,130.5 203.5,135.5C 198.167,135.5 192.833,135.5 187.5,135.5C 187.5,130.5 187.5,125.5 187.5,120.5 Z"/></g>
<g><path style="opacity:0.938" fill="#000000" d="M 217.5,120.5 C 222.833,120.5 228.167,120.5 233.5,120.5C 233.5,125.5 233.5,130.5 233.5,135.5C 228.167,135.5 222.833,135.5 217.5,135.5C 217.5,130.5 217.5,125.5 217.5,120.5 Z"/></g>
<g><path style="opacity:0.926" fill="#000000" d="M 323.5,134.5 C 346.125,132.953 355.625,143.287 352,165.5C 345.155,178.674 334.655,182.841 320.5,178C 309.039,171.231 305.205,161.398 309,148.5C 311.832,141.684 316.665,137.017 323.5,134.5 Z M 327.5,150.5 C 324.21,152.639 323.043,155.639 324,159.5C 327.293,164.827 331.293,165.493 336,161.5C 338.51,153.883 335.677,150.216 327.5,150.5 Z"/></g>
<g><path style="opacity:0.925" fill="#000000" d="M 459.5,157.5 C 481.465,157.293 490.632,167.959 487,189.5C 480.347,202.046 470.18,206.213 456.5,202C 444.471,195.103 440.304,184.937 444,171.5C 447.492,164.834 452.659,160.168 459.5,157.5 Z M 463.5,173.5 C 470.99,173.82 473.49,177.486 471,184.5C 466.098,188.986 462.098,188.319 459,182.5C 458.053,178.279 459.553,175.279 463.5,173.5 Z"/></g>
<g><path style="opacity:0.925" fill="#000000" d="M 33.5,322.5 C 56.3113,322.465 65.1447,333.465 60,355.5C 51.7662,368.574 40.5995,371.741 26.5,365C 16.2388,356.483 13.7388,345.983 19,333.5C 22.8568,328.468 27.6901,324.801 33.5,322.5 Z M 36.5,338.5 C 44.187,338.568 47.0203,342.235 45,349.5C 40.5681,353.743 36.5681,353.41 33,348.5C 31.7563,344.191 32.9229,340.858 36.5,338.5 Z"/></g>
<g><path style="opacity:0.942" fill="#000000" d="M 57.5,511.5 C 52.1667,511.5 46.8333,511.5 41.5,511.5C 43.1667,481.833 29.1667,467.833 -0.5,469.5C -0.5,464.167 -0.5,458.833 -0.5,453.5C 29.1667,455.167 43.1667,441.167 41.5,411.5C 46.8333,411.5 52.1667,411.5 57.5,411.5C 55.8333,441.167 69.8333,455.167 99.5,453.5C 99.5,458.833 99.5,464.167 99.5,469.5C 69.8333,467.833 55.8333,481.833 57.5,511.5 Z M 48.5,449.5 C 52.7669,453.428 57.1003,457.428 61.5,461.5C 57.1667,465.167 53.1667,469.167 49.5,473.5C 45.8333,469.167 41.8333,465.167 37.5,461.5C 41.8692,458.131 45.5358,454.131 48.5,449.5 Z"/></g>
<g><path style="opacity:0.925" fill="#000000" d="M 144.5,427.5 C 167.849,427.67 176.682,439.004 171,461.5C 162.296,473.73 151.129,476.564 137.5,470C 124.216,456.927 124.216,443.927 137.5,431C 139.925,429.787 142.259,428.621 144.5,427.5 Z M 147.5,443.5 C 155.501,443.323 158.334,446.99 156,454.5C 151.203,458.802 147.203,458.136 144,452.5C 143.481,448.868 144.647,445.868 147.5,443.5 Z"/></g>
</svg>
